<svg xmlns="http://www.w3.org/2000/svg" width="350" height="180" viewBox="0 0 350 180">
  <defs>
    <linearGradient id="bgGradLight" x1="0%" y1="0%" x2="100%" y2="100%">
      <stop offset="0%" style="stop-color:#ffffff;stop-opacity:1" />
      <stop offset="100%" style="stop-color:#f6f8fa;stop-opacity:1" />
    </linearGradient>
  </defs>
  
  <!-- Background -->
  <rect width="350" height="180" rx="10" fill="url(#bgGradLight)" stroke="#f47067" stroke-width="1"/>
  
  <!-- Title -->
  <text x="175" y="28" fill="#f47067" font-family="Segoe UI, sans-serif" font-size="14" font-weight="bold" text-anchor="middle">Top Languages</text>
  
  <!-- JavaScript -->
  <rect x="20" y="45" width="180" height="18" rx="4" fill="#e1e4e8"/>
  <rect x="20" y="45" width="180" height="18" rx="4" fill="#f1e05a"/>
  <text x="210" y="58" fill="#24292e" font-family="Segoe UI, sans-serif" font-size="11">JavaScript</text>
  <text x="320" y="58" fill="#586069" font-family="Segoe UI, sans-serif" font-size="11" text-anchor="end">42%</text>
  
  <!-- Python -->
  <rect x="20" y="70" width="130" height="18" rx="4" fill="#e1e4e8"/>
  <rect x="20" y="70" width="130" height="18" rx="4" fill="#3572A5"/>
  <text x="210" y="83" fill="#24292e" font-family="Segoe UI, sans-serif" font-size="11">Python</text>
  <text x="320" y="83" fill="#586069" font-family="Segoe UI, sans-serif" font-size="11" text-anchor="end">28%</text>
  
  <!-- HTML -->
  <rect x="20" y="95" width="60" height="18" rx="4" fill="#e1e4e8"/>
  <rect x="20" y="95" width="60" height="18" rx="4" fill="#e34c26"/>
  <text x="210" y="108" fill="#24292e" font-family="Segoe UI, sans-serif" font-size="11">HTML</text>
  <text x="320" y="108" fill="#586069" font-family="Segoe UI, sans-serif" font-size="11" text-anchor="end">14%</text>
  
  <!-- CSS -->
  <rect x="20" y="120" width="40" height="18" rx="4" fill="#e1e4e8"/>
  <rect x="20" y="120" width="40" height="18" rx="4" fill="#563d7c"/>
  <text x="210" y="133" fill="#24292e" font-family="Segoe UI, sans-serif" font-size="11">CSS</text>
  <text x="320" y="133" fill="#586069" font-family="Segoe UI, sans-serif" font-size="11" text-anchor="end">10%</text>
  
  <!-- TypeScript -->
  <rect x="20" y="145" width="25" height="18" rx="4" fill="#e1e4e8"/>
  <rect x="20" y="145" width="25" height="18" rx="4" fill="#2b7489"/>
  <text x="210" y="158" fill="#24292e" font-family="Segoe UI, sans-serif" font-size="11">TypeScript</text>
  <text x="320" y="158" fill="#586069" font-family="Segoe UI, sans-serif" font-size="11" text-anchor="end">6%</text>
</svg>