<svg xmlns="http://www.w3.org/2000/svg" width="400" height="180" viewBox="0 0 400 180">
  <defs>
    <linearGradient id="bgGrad2" x1="0%" y1="0%" x2="100%" y2="100%">
      <stop offset="0%" style="stop-color:#0d1117"/>
      <stop offset="100%" style="stop-color:#161b22"/>
    </linearGradient>
  </defs>
  
  <rect width="400" height="180" rx="12" fill="url(#bgGrad2)" stroke="#30363d" stroke-width="1"/>
  
  <!-- Header -->
  <text x="200" y="25" fill="#58a6ff" font-family="Segoe UI, Ubuntu, sans-serif" font-size="14" font-weight="600" text-anchor="middle">📊 Most Used Languages</text>
  <line x1="30" y1="38" x2="370" y2="38" stroke="#21262d" stroke-width="1"/>
  
  <!-- Progress Bar Background -->
  <rect x="20" y="45" width="360" height="8" rx="4" fill="#21262d"/>
  
  <!-- Progress Bar Segments -->
  <rect x="20" y="45" width="294.5953707850643" height="8" fill="#f1e05a"/><rect x="314.5953707850643" y="45" width="25.81999344356153" height="8" fill="#563d7c"/><rect x="340.41536422862583" y="45" width="18.770898647619134" height="8" fill="#e34c26"/><rect x="359.186262876245" y="45" width="15.610787649886184" height="8" fill="#3572A5"/><rect x="374.79705052613116" y="45" width="5.202949473868899" height="8" fill="#A97BFF"/>
  
  <!-- Round corners for first and last -->
  <rect x="20" y="45" width="8" height="8" rx="4" fill="#f1e05a"/>
  
  <!-- Language Items -->
  
    <g transform="translate(30, 80)">
      <circle cx="5" cy="5" r="5" fill="#f1e05a"/>
      <text x="16" y="9" fill="#e6edf3" font-family="Segoe UI, Ubuntu, sans-serif" font-size="11" font-weight="500">JavaScript</text>
      <text x="165" y="9" fill="#7d8590" font-family="Segoe UI, Ubuntu, sans-serif" font-size="11" text-anchor="end">81.8%</text>
    </g>
    <g transform="translate(210, 80)">
      <circle cx="5" cy="5" r="5" fill="#563d7c"/>
      <text x="16" y="9" fill="#e6edf3" font-family="Segoe UI, Ubuntu, sans-serif" font-size="11" font-weight="500">CSS</text>
      <text x="165" y="9" fill="#7d8590" font-family="Segoe UI, Ubuntu, sans-serif" font-size="11" text-anchor="end">7.2%</text>
    </g>
    <g transform="translate(30, 108)">
      <circle cx="5" cy="5" r="5" fill="#e34c26"/>
      <text x="16" y="9" fill="#e6edf3" font-family="Segoe UI, Ubuntu, sans-serif" font-size="11" font-weight="500">HTML</text>
      <text x="165" y="9" fill="#7d8590" font-family="Segoe UI, Ubuntu, sans-serif" font-size="11" text-anchor="end">5.2%</text>
    </g>
    <g transform="translate(210, 108)">
      <circle cx="5" cy="5" r="5" fill="#3572A5"/>
      <text x="16" y="9" fill="#e6edf3" font-family="Segoe UI, Ubuntu, sans-serif" font-size="11" font-weight="500">Python</text>
      <text x="165" y="9" fill="#7d8590" font-family="Segoe UI, Ubuntu, sans-serif" font-size="11" text-anchor="end">4.3%</text>
    </g>
    <g transform="translate(30, 136)">
      <circle cx="5" cy="5" r="5" fill="#A97BFF"/>
      <text x="16" y="9" fill="#e6edf3" font-family="Segoe UI, Ubuntu, sans-serif" font-size="11" font-weight="500">Kotlin</text>
      <text x="165" y="9" fill="#7d8590" font-family="Segoe UI, Ubuntu, sans-serif" font-size="11" text-anchor="end">1.4%</text>
    </g>
</svg>