<svg xmlns="http://www.w3.org/2000/svg" width="495" height="195" viewBox="0 0 495 195">
  <defs>
    <linearGradient id="grad2" x1="0%" y1="0%" x2="100%" y2="100%">
      <stop offset="0%" style="stop-color:#0d1117;stop-opacity:1" />
      <stop offset="100%" style="stop-color:#161b22;stop-opacity:1" />
    </linearGradient>
  </defs>
  
  <!-- Background -->
  <rect width="495" height="195" rx="10" fill="url(#grad2)" stroke="#30363d" stroke-width="1"/>
  
  <!-- Title -->
  <text x="247.5" y="28" fill="#58a6ff" font-family="Segoe UI, Arial, sans-serif" font-size="16" font-weight="bold" text-anchor="middle">Most Used Languages</text>
  
  <!-- Progress Bar Background -->
  <rect x="20" y="50" width="455" height="10" rx="5" fill="#21262d"/>
  
  <!-- Progress Bar -->
  <rect x="20" y="50" width="149.84" height="10" fill="#e34c26" rx="2"/>
  <rect x="169.84" y="50" width="148.10" height="10" fill="#563d7c" rx="2"/>
  <rect x="317.94" y="50" width="109.11" height="10" fill="#b07219" rx="2"/>
  <rect x="427.05" y="50" width="28.44" height="10" fill="#f1e05a" rx="2"/>
  <rect x="455.49" y="50" width="18.39" height="10" fill="#3572A5" rx="2"/>
  <rect x="473.88" y="50" width="1.12" height="10" fill="#384d54" rx="2"/>
  
  <!-- Language Items -->
  <g transform="translate(30, 90)">
    <circle cx="6" cy="6" r="6" fill="#e34c26"/>
    <text x="18" y="10" fill="#c9d1d9" font-family="Segoe UI, Arial, sans-serif" font-size="12">HTML</text>
    <text x="180" y="10" fill="#8b949e" font-family="Segoe UI, Arial, sans-serif" font-size="12" text-anchor="end">32.93%</text>
  </g>
  <g transform="translate(250, 90)">
    <circle cx="6" cy="6" r="6" fill="#563d7c"/>
    <text x="18" y="10" fill="#c9d1d9" font-family="Segoe UI, Arial, sans-serif" font-size="12">CSS</text>
    <text x="180" y="10" fill="#8b949e" font-family="Segoe UI, Arial, sans-serif" font-size="12" text-anchor="end">32.55%</text>
  </g>
  <g transform="translate(30, 120)">
    <circle cx="6" cy="6" r="6" fill="#b07219"/>
    <text x="18" y="10" fill="#c9d1d9" font-family="Segoe UI, Arial, sans-serif" font-size="12">Java</text>
    <text x="180" y="10" fill="#8b949e" font-family="Segoe UI, Arial, sans-serif" font-size="12" text-anchor="end">23.98%</text>
  </g>
  <g transform="translate(250, 120)">
    <circle cx="6" cy="6" r="6" fill="#f1e05a"/>
    <text x="18" y="10" fill="#c9d1d9" font-family="Segoe UI, Arial, sans-serif" font-size="12">JavaScript</text>
    <text x="180" y="10" fill="#8b949e" font-family="Segoe UI, Arial, sans-serif" font-size="12" text-anchor="end">6.25%</text>
  </g>
  <g transform="translate(30, 150)">
    <circle cx="6" cy="6" r="6" fill="#3572A5"/>
    <text x="18" y="10" fill="#c9d1d9" font-family="Segoe UI, Arial, sans-serif" font-size="12">Python</text>
    <text x="180" y="10" fill="#8b949e" font-family="Segoe UI, Arial, sans-serif" font-size="12" text-anchor="end">4.04%</text>
  </g>
  <g transform="translate(250, 150)">
    <circle cx="6" cy="6" r="6" fill="#384d54"/>
    <text x="18" y="10" fill="#c9d1d9" font-family="Segoe UI, Arial, sans-serif" font-size="12">Dockerfile</text>
    <text x="180" y="10" fill="#8b949e" font-family="Segoe UI, Arial, sans-serif" font-size="12" text-anchor="end">0.24%</text>
  </g>
</svg>